<svg xmlns="http://www.w3.org/2000/svg" viewBox="0 0 800 600">
  <title>Regional Arduino Robotics Coach certificate placeholder</title>
  <defs>
    <linearGradient id="bg" x1="0" y1="0" x2="1" y2="1">
      <stop offset="0" stop-color="#101015"/>
      <stop offset="1" stop-color="#0b1118"/>
    </linearGradient>
    <linearGradient id="ac" x1="0" y1="0" x2="1" y2="0">
      <stop offset="0" stop-color="#2dd4bf"/>
      <stop offset="1" stop-color="#38bdf8"/>
    </linearGradient>
  </defs>
  <rect width="800" height="600" fill="url(#bg)"/>
  <circle cx="700" cy="70" r="180" fill="#2dd4bf" opacity="0.07"/>
  <rect x="60" y="60" width="680" height="480" rx="20" fill="#14171f" stroke="url(#ac)" stroke-opacity="0.5" stroke-width="3"/>
  <rect x="120" y="140" width="330" height="22" rx="11" fill="#3f4654"/>
  <rect x="120" y="196" width="440" height="14" rx="7" fill="#2a303c"/>
  <rect x="120" y="228" width="400" height="14" rx="7" fill="#2a303c"/>
  <rect x="120" y="300" width="230" height="14" rx="7" fill="#2a303c"/>
  <circle cx="610" cy="400" r="58" fill="none" stroke="url(#ac)" stroke-width="5"/>
  <path d="M610 362 L621 388 L649 390 L627 408 L634 436 L610 421 L586 436 L593 408 L571 390 L599 388 Z" fill="url(#ac)" opacity="0.9"/>
  <rect x="120" y="420" width="180" height="10" rx="5" fill="#2a303c"/>
  <rect x="120" y="444" width="140" height="10" rx="5" fill="#2a303c"/>
  <text x="80" y="572" font-family="ui-monospace, Menlo, monospace" font-size="20" fill="#8b93a3">public/images/certificates/cert-arduino.svg - Arduino robotics coach</text>
</svg>
