<svg xmlns="http://www.w3.org/2000/svg" viewBox="0 0 900 675">
  <title>Award ceremony with students placeholder</title>
  <defs>
    <linearGradient id="bg" x1="0" y1="0" x2="1" y2="1">
      <stop offset="0" stop-color="#101015"/>
      <stop offset="1" stop-color="#0b1118"/>
    </linearGradient>
    <linearGradient id="ac" x1="0" y1="0" x2="1" y2="0">
      <stop offset="0" stop-color="#2dd4bf"/>
      <stop offset="1" stop-color="#38bdf8"/>
    </linearGradient>
  </defs>
  <rect width="900" height="675" fill="url(#bg)"/>
  <circle cx="100" cy="120" r="200" fill="#2dd4bf" opacity="0.07"/>
  <path d="M400 220 L430 250 L400 280 L370 250 Z" fill="#38bdf8" opacity="0.6"/>
  <circle cx="560" cy="200" r="8" fill="#2dd4bf"/>
  <circle cx="320" cy="180" r="6" fill="#38bdf8"/>
  <circle cx="620" cy="260" r="6" fill="#2dd4bf"/>
  <circle cx="450" cy="360" r="60" fill="none" stroke="url(#ac)" stroke-width="6"/>
  <path d="M450 325 L461 350 L488 352 L467 369 L474 396 L450 382 L426 396 L433 369 L412 352 L439 350 Z" fill="url(#ac)"/>
  <path d="M420 300 L400 240 h100 l-20 60 Z" fill="#1b202b" stroke="#ffffff" stroke-opacity="0.06"/>
  <circle cx="300" cy="520" r="24" fill="#2a303c"/>
  <circle cx="450" cy="540" r="24" fill="#2a303c"/>
  <circle cx="600" cy="520" r="24" fill="#2a303c"/>
  <text x="48" y="630" font-family="ui-monospace, Menlo, monospace" font-size="22" fill="#8b93a3">gallery-06.svg - award ceremony</text>
</svg>
