<svg xmlns="http://www.w3.org/2000/svg" viewBox="0 0 1200 750">
  <title>Healthcare EHP Modules placeholder</title>
  <defs>
    <linearGradient id="bg" x1="0" y1="0" x2="1" y2="1">
      <stop offset="0" stop-color="#101015"/>
      <stop offset="1" stop-color="#0b1118"/>
    </linearGradient>
    <linearGradient id="ac" x1="0" y1="0" x2="1" y2="0">
      <stop offset="0" stop-color="#2dd4bf"/>
      <stop offset="1" stop-color="#38bdf8"/>
    </linearGradient>
  </defs>
  <rect width="1200" height="750" fill="url(#bg)"/>
  <circle cx="1060" cy="90" r="260" fill="#2dd4bf" opacity="0.07"/>
  <circle cx="120" cy="690" r="220" fill="#38bdf8" opacity="0.06"/>
  <rect x="24" y="24" width="1152" height="702" rx="28" fill="none" stroke="#ffffff" stroke-opacity="0.08" stroke-width="2"/>
  <rect x="320" y="140" width="560" height="400" rx="18" fill="#161a22" stroke="#ffffff" stroke-opacity="0.08"/>
  <rect x="320" y="140" width="560" height="54" rx="18" fill="#1b202b"/>
  <circle cx="352" cy="167" r="7" fill="#2dd4bf"/>
  <circle cx="378" cy="167" r="7" fill="#38bdf8"/>
  <circle cx="404" cy="167" r="7" fill="#52525b"/>
  <polyline points="360,400 460,400 500,320 550,470 600,360 640,400 840,400"
    fill="none" stroke="url(#ac)" stroke-width="6" stroke-linecap="round" stroke-linejoin="round"/>
  <rect x="770" y="230" width="56" height="20" rx="6" fill="#2dd4bf" opacity="0.9"/>
  <rect x="788" y="212" width="20" height="56" rx="6" fill="#2dd4bf" opacity="0.9"/>
  <text x="48" y="700" font-family="ui-monospace, Menlo, monospace" font-size="26" fill="#8b93a3">public/images/projects/project-ehp.svg - swap with a real screenshot</text>
</svg>
